<?xml version="1.0" standalone="no"?>
<!DOCTYPE svg PUBLIC "-//W3C//DTD SVG 20010904//EN"
 "http://www.w3.org/TR/2001/REC-SVG-20010904/DTD/svg10.dtd">
<svg version="1.0" xmlns="http://www.w3.org/2000/svg"
 width="154.000000pt" height="154.000000pt" viewBox="0 0 154.000000 154.000000"
 preserveAspectRatio="xMidYMid meet">
<metadata>
Created by potrace 1.14, written by Peter Selinger 2001-2017
</metadata>
<g transform="translate(0.000000,154.000000) scale(0.100000,-0.100000)"
fill="#000000" stroke="none">
<path d="M184 1420 c-12 -4 -31 -21 -43 -36 -21 -27 -21 -29 -21 -606 0 -407
3 -586 11 -601 6 -12 21 -30 33 -39 19 -16 67 -18 611 -18 544 0 592 2 611 18
12 9 27 27 33 39 8 15 11 195 11 603 l0 582 -34 34 -34 34 -579 -1 c-318 0
-588 -4 -599 -9z m1194 -20 c17 -11 33 -25 33 -32 4 -30 4 -218 0 -218 -2 0
-39 29 -82 65 -111 92 -123 91 -185 -22 -56 -106 -188 -354 -234 -440 -17 -35
-36 -63 -42 -63 -5 0 -22 9 -36 21 -15 11 -69 50 -120 86 -82 58 -96 64 -116
55 -19 -9 -27 -25 -40 -89 -10 -43 -24 -100 -32 -128 -8 -27 -18 -68 -22 -90
-10 -47 -13 -47 -119 -16 -113 33 -115 32 -170 -51 -46 -72 -47 -75 -51 -163
l-3 -90 21 30 c39 55 90 139 96 157 5 18 25 24 38 11 3 -4 12 -8 19 -9 46 -9
145 -36 158 -43 20 -11 52 14 67 54 7 17 18 62 26 101 9 39 23 99 32 132 15
53 20 61 38 58 12 -2 21 -9 21 -16 0 -7 11 -20 25 -29 24 -15 25 -15 10 4 -8
11 12 -6 44 -38 33 -31 64 -57 70 -58 25 -2 48 -8 54 -15 4 -4 -2 -4 -13 -1
-19 7 -19 7 -1 -8 20 -15 41 -11 30 7 -4 7 -2 8 5 4 6 -4 14 0 18 11 3 10 12
22 20 26 7 4 13 14 13 22 0 13 55 124 132 265 16 30 46 87 66 125 20 39 39 72
42 75 3 3 12 20 19 38 17 41 25 46 42 25 12 -14 12 -16 -1 -8 -9 5 -12 5 -7
-1 5 -5 12 -9 15 -10 23 -3 45 -20 53 -41 5 -13 13 -21 19 -18 5 3 21 -5 35
-19 14 -15 30 -26 35 -26 6 0 10 -161 10 -422 -1 -400 -2 -424 -20 -446 l-18
-22 -587 0 c-538 0 -589 1 -616 17 -16 10 -29 22 -29 28 0 5 0 275 -1 599 0
528 1 590 16 605 14 14 80 17 598 21 320 3 584 6 587 8 3 1 20 -7 38 -18z
m-613 -750 c3 -6 -1 -7 -9 -4 -18 7 -21 14 -7 14 6 0 13 -4 16 -10z"/>
</g>
</svg>
